<svg width="133" height="127" viewBox="0 0 133 127" fill="none" xmlns="http://www.w3.org/2000/svg">
<path d="M80.5 11C80.2401 11 80.0331 10.8123 79.9801 10.5331C79.4845 7.32814 79.0853 6.948 75.9813 6.5197C75.702 6.48118 75.5 6.26945 75.5 5.99998C75.5 5.73047 75.707 5.50913 75.9862 5.47542C79.0948 5.12895 79.5375 4.67658 79.9801 1.46678C80.0237 1.19247 80.2351 1 80.5 1C80.7599 1 80.9714 1.19247 81.0149 1.46678C81.5012 4.67658 81.9196 5.09043 85.0187 5.47542C85.293 5.51394 85.5 5.73047 85.5 5.99998C85.5 6.26945 85.293 6.48602 85.0138 6.5197C81.9052 6.87101 81.4576 7.32334 81.0149 10.5331C80.9763 10.8074 80.7649 11 80.5 11Z" fill="#FEBF05"/>
<path d="M79.5 37C79.2401 37 79.0331 36.8123 78.9801 36.5331C78.4845 33.3281 78.0853 32.948 74.9813 32.5197C74.702 32.4812 74.5 32.2694 74.5 32C74.5 31.7305 74.707 31.5091 74.9862 31.4754C78.0948 31.129 78.5375 30.6766 78.9801 27.4668C79.0237 27.1925 79.2351 27 79.5 27C79.7599 27 79.9714 27.1925 80.0149 27.4668C80.5012 30.6766 80.9196 31.0904 84.0187 31.4754C84.293 31.5139 84.5 31.7305 84.5 32C84.5 32.2694 84.293 32.486 84.0138 32.5197C80.9052 32.871 80.4576 33.3233 80.0149 36.5331C79.9763 36.8074 79.7649 37 79.5 37Z" fill="#FECC13"/>
<path d="M33.5 72C33.2401 72 33.0331 71.8123 32.9801 71.5331C32.4845 68.3281 32.0853 67.948 28.9813 67.5197C28.702 67.4812 28.5 67.2694 28.5 67C28.5 66.7305 28.707 66.5091 28.9862 66.4754C32.0948 66.129 32.5375 65.6766 32.9801 62.4668C33.0237 62.1925 33.2351 62 33.5 62C33.7599 62 33.9714 62.1925 34.0149 62.4668C34.5012 65.6766 34.9196 66.0904 38.0187 66.4754C38.293 66.5139 38.5 66.7305 38.5 67C38.5 67.2694 38.293 67.486 38.0138 67.5197C34.9052 67.871 34.4576 68.3233 34.0149 71.5331C33.9763 71.8074 33.7649 72 33.5 72Z" fill="#FECC13"/>
<path d="M50.5 54C50.2401 54 50.0331 53.8123 49.9801 53.5331C49.4845 50.3281 49.0853 49.948 45.9813 49.5197C45.702 49.4812 45.5 49.2694 45.5 49C45.5 48.7305 45.707 48.5091 45.9862 48.4754C49.0948 48.129 49.5375 47.6766 49.9801 44.4668C50.0237 44.1925 50.2351 44 50.5 44C50.7599 44 50.9714 44.1925 51.0149 44.4668C51.5012 47.6766 51.9196 48.0904 55.0187 48.4754C55.293 48.5139 55.5 48.7305 55.5 49C55.5 49.2694 55.293 49.486 55.0138 49.5197C51.9052 49.871 51.4576 50.3233 51.0149 53.5331C50.9763 53.8074 50.7649 54 50.5 54Z" fill="#FF9044"/>
<path d="M73.5 112C73.2401 112 73.0331 111.812 72.9801 111.533C72.4845 108.328 72.0853 107.948 68.9813 107.52C68.702 107.481 68.5 107.269 68.5 107C68.5 106.73 68.707 106.509 68.9862 106.475C72.0948 106.129 72.5375 105.677 72.9801 102.467C73.0237 102.192 73.2351 102 73.5 102C73.7599 102 73.9714 102.192 74.0149 102.467C74.5012 105.677 74.9196 106.09 78.0187 106.475C78.293 106.514 78.5 106.73 78.5 107C78.5 107.269 78.293 107.486 78.0138 107.52C74.9052 107.871 74.4576 108.323 74.0149 111.533C73.9763 111.807 73.7649 112 73.5 112Z" fill="#FECC13"/>
<path d="M8.5 127C8.24006 127 8.0331 126.812 7.98012 126.533C7.48448 123.328 7.08533 122.948 3.98127 122.52C3.70204 122.481 3.5 122.269 3.5 122C3.5 121.73 3.70696 121.509 3.9862 121.475C7.09478 121.129 7.53745 120.677 7.98012 117.467C8.02365 117.192 8.23513 117 8.5 117C8.75994 117 8.97142 117.192 9.01495 117.467C9.50115 120.677 9.9196 121.09 13.0187 121.475C13.293 121.514 13.5 121.73 13.5 122C13.5 122.269 13.293 122.486 13.0138 122.52C9.90522 122.871 9.45762 123.323 9.01495 126.533C8.97635 126.807 8.76487 127 8.5 127Z" fill="#FECC13"/>
<path d="M51.5 92C51.344 92 51.2199 91.8874 51.1881 91.7199C50.8907 89.7969 50.6512 89.5688 48.7888 89.3118C48.6212 89.2887 48.5 89.1617 48.5 89C48.5 88.8383 48.6242 88.7055 48.7917 88.6853C50.6569 88.4774 50.9225 88.2059 51.1881 86.2801C51.2142 86.1155 51.3411 86 51.5 86C51.656 86 51.7829 86.1155 51.809 86.2801C52.1007 88.2059 52.3518 88.4543 54.2112 88.6853C54.3758 88.7084 54.5 88.8383 54.5 89C54.5 89.1617 54.3758 89.2916 54.2083 89.3118C52.3431 89.5226 52.0746 89.794 51.809 91.7199C51.7858 91.8844 51.6589 92 51.5 92Z" fill="#FEBF05"/>
<path d="M69.5 47C69.344 47 69.2199 46.8874 69.1881 46.7199C68.8907 44.7969 68.6512 44.5688 66.7888 44.3118C66.6212 44.2887 66.5 44.1617 66.5 44C66.5 43.8383 66.6242 43.7055 66.7917 43.6853C68.6569 43.4774 68.9225 43.2059 69.1881 41.2801C69.2142 41.1155 69.3411 41 69.5 41C69.656 41 69.7829 41.1155 69.809 41.2801C70.1007 43.2059 70.3518 43.4543 72.2112 43.6853C72.3758 43.7084 72.5 43.8383 72.5 44C72.5 44.1617 72.3758 44.2916 72.2083 44.3118C70.3431 44.5226 70.0746 44.794 69.809 46.7199C69.7858 46.8844 69.6589 47 69.5 47Z" fill="#FECC13"/>
<path d="M34.5 25C34.344 25 34.2199 24.8874 34.1881 24.7199C33.8907 22.7969 33.6512 22.5688 31.7888 22.3118C31.6212 22.2887 31.5 22.1617 31.5 22C31.5 21.8383 31.6242 21.7055 31.7917 21.6853C33.6569 21.4774 33.9225 21.2059 34.1881 19.2801C34.2142 19.1155 34.3411 19 34.5 19C34.656 19 34.7829 19.1155 34.809 19.2801C35.1007 21.2059 35.3518 21.4543 37.2112 21.6853C37.3758 21.7084 37.5 21.8383 37.5 22C37.5 22.1617 37.3758 22.2916 37.2083 22.3118C35.3431 22.5226 35.0746 22.794 34.809 24.7199C34.7858 24.8844 34.6589 25 34.5 25Z" fill="#FF9044"/>
<path d="M3.5 74C3.34404 74 3.21986 73.8874 3.18807 73.7199C2.89069 71.7969 2.6512 71.5688 0.788765 71.3118C0.621222 71.2887 0.5 71.1617 0.5 71C0.5 70.8383 0.624179 70.7055 0.791721 70.6853C2.65687 70.4774 2.92247 70.2059 3.18807 68.2801C3.21419 68.1155 3.34108 68 3.5 68C3.65596 68 3.78285 68.1155 3.80897 68.2801C4.10069 70.2059 4.35176 70.4543 6.21124 70.6853C6.37582 70.7084 6.5 70.8383 6.5 71C6.5 71.1617 6.37582 71.2916 6.20828 71.3118C4.34313 71.5226 4.07457 71.794 3.80897 73.7199C3.78581 73.8844 3.65892 74 3.5 74Z" fill="#FEBF05"/>
<path d="M13.5 106C13.396 106 13.3132 105.925 13.292 105.813C13.0938 104.531 12.9341 104.379 11.6925 104.208C11.5808 104.192 11.5 104.108 11.5 104C11.5 103.892 11.5828 103.804 11.6945 103.79C12.9379 103.652 13.115 103.471 13.292 102.187C13.3095 102.077 13.3941 102 13.5 102C13.604 102 13.6886 102.077 13.706 102.187C13.9005 103.471 14.0678 103.636 15.3075 103.79C15.4172 103.806 15.5 103.892 15.5 104C15.5 104.108 15.4172 104.194 15.3055 104.208C14.0621 104.348 13.883 104.529 13.706 105.813C13.6905 105.923 13.6059 106 13.5 106Z" fill="#FEBF05"/>
<path d="M70.5 73C70.396 73 70.3132 72.9249 70.292 72.8132C70.0938 71.5313 69.9341 71.3792 68.6925 71.2079C68.5808 71.1925 68.5 71.1078 68.5 71C68.5 70.8922 68.5828 70.8037 68.6945 70.7902C69.9379 70.6516 70.115 70.4706 70.292 69.1867C70.3095 69.077 70.3941 69 70.5 69C70.604 69 70.6886 69.077 70.706 69.1867C70.9005 70.4706 71.0678 70.6362 72.3075 70.7902C72.4172 70.8056 72.5 70.8922 72.5 71C72.5 71.1078 72.4172 71.1944 72.3055 71.2079C71.0621 71.3484 70.883 71.5293 70.706 72.8132C70.6905 72.923 70.6059 73 70.5 73Z" fill="#FF9044"/>
<path d="M90.5 28C90.396 28 90.3132 27.9249 90.292 27.8132C90.0938 26.5313 89.9341 26.3792 88.6925 26.2079C88.5808 26.1925 88.5 26.1078 88.5 26C88.5 25.8922 88.5828 25.8037 88.6945 25.7902C89.9379 25.6516 90.115 25.4706 90.292 24.1867C90.3095 24.077 90.3941 24 90.5 24C90.604 24 90.6886 24.077 90.706 24.1867C90.9005 25.4706 91.0678 25.6362 92.3075 25.7902C92.4172 25.8056 92.5 25.8922 92.5 26C92.5 26.1078 92.4172 26.1944 92.3055 26.2079C91.0621 26.3484 90.883 26.5293 90.706 27.8132C90.6905 27.923 90.6059 28 90.5 28Z" fill="#FF9044"/>
<path d="M65.5 13C65.396 13 65.3132 12.9249 65.292 12.8132C65.0938 11.5313 64.9341 11.3792 63.6925 11.2079C63.5808 11.1925 63.5 11.1078 63.5 11C63.5 10.8922 63.5828 10.8037 63.6945 10.7902C64.9379 10.6516 65.115 10.4706 65.292 9.18671C65.3095 9.07699 65.3941 9 65.5 9C65.604 9 65.6886 9.07699 65.706 9.18671C65.9005 10.4706 66.0678 10.6362 67.3075 10.7902C67.4172 10.8056 67.5 10.8922 67.5 11C67.5 11.1078 67.4172 11.1944 67.3055 11.2079C66.0621 11.3484 65.883 11.5293 65.706 12.8132C65.6905 12.923 65.6059 13 65.5 13Z" fill="#FF9044"/>
<path d="M21.5 119C21.344 119 21.2199 118.887 21.1881 118.72C20.8907 116.797 20.6512 116.569 18.7888 116.312C18.6212 116.289 18.5 116.162 18.5 116C18.5 115.838 18.6242 115.705 18.7917 115.685C20.6569 115.477 20.9225 115.206 21.1881 113.28C21.2142 113.115 21.3411 113 21.5 113C21.656 113 21.7829 113.115 21.809 113.28C22.1007 115.206 22.3518 115.454 24.2112 115.685C24.3758 115.708 24.5 115.838 24.5 116C24.5 116.162 24.3758 116.292 24.2083 116.312C22.3431 116.523 22.0746 116.794 21.809 118.72C21.7858 118.884 21.6589 119 21.5 119Z" fill="#FEBF05"/>
<path d="M47.5 100C47.344 100 47.2199 99.8874 47.1881 99.7199C46.8907 97.7969 46.6512 97.5688 44.7888 97.3118C44.6212 97.2887 44.5 97.1617 44.5 97C44.5 96.8383 44.6242 96.7055 44.7917 96.6853C46.6569 96.4774 46.9225 96.2059 47.1881 94.2801C47.2142 94.1155 47.3411 94 47.5 94C47.656 94 47.7829 94.1155 47.809 94.2801C48.1007 96.2059 48.3518 96.4543 50.2112 96.6853C50.3758 96.7084 50.5 96.8383 50.5 97C50.5 97.1617 50.3758 97.2916 50.2083 97.3118C48.3431 97.5226 48.0746 97.794 47.809 99.7199C47.7858 99.8844 47.6589 100 47.5 100Z" fill="#FF9044"/>
<path d="M117.5 17C117.344 17 117.22 16.8874 117.188 16.7199C116.891 14.7969 116.651 14.5688 114.789 14.3118C114.621 14.2887 114.5 14.1617 114.5 14C114.5 13.8383 114.624 13.7055 114.792 13.6853C116.657 13.4774 116.922 13.2059 117.188 11.2801C117.214 11.1155 117.341 11 117.5 11C117.656 11 117.783 11.1155 117.809 11.2801C118.101 13.2059 118.352 13.4543 120.211 13.6853C120.376 13.7084 120.5 13.8383 120.5 14C120.5 14.1617 120.376 14.2916 120.208 14.3118C118.343 14.5226 118.075 14.794 117.809 16.7199C117.786 16.8844 117.659 17 117.5 17Z" fill="#FF9044"/>
<path d="M129.5 6C129.344 6 129.22 5.8874 129.188 5.71986C128.891 3.79689 128.651 3.5688 126.789 3.31182C126.621 3.28871 126.5 3.16167 126.5 2.99999C126.5 2.83828 126.624 2.70548 126.792 2.68525C128.657 2.47737 128.922 2.20595 129.188 0.280071C129.214 0.115483 129.341 0 129.5 0C129.656 0 129.783 0.115483 129.809 0.280071C130.101 2.20595 130.352 2.45426 132.211 2.68525C132.376 2.70836 132.5 2.83828 132.5 2.99999C132.5 3.16167 132.376 3.29161 132.208 3.31182C130.343 3.5226 130.075 3.794 129.809 5.71986C129.786 5.88444 129.659 6 129.5 6Z" fill="#FECC13"/>
<path d="M22.5 82C22.344 82 22.2199 81.8874 22.1881 81.7199C21.8907 79.7969 21.6512 79.5688 19.7888 79.3118C19.6212 79.2887 19.5 79.1617 19.5 79C19.5 78.8383 19.6242 78.7055 19.7917 78.6853C21.6569 78.4774 21.9225 78.2059 22.1881 76.2801C22.2142 76.1155 22.3411 76 22.5 76C22.656 76 22.7829 76.1155 22.809 76.2801C23.1007 78.2059 23.3518 78.4543 25.2112 78.6853C25.3758 78.7084 25.5 78.8383 25.5 79C25.5 79.1617 25.3758 79.2916 25.2083 79.3118C23.3431 79.5226 23.0746 79.794 22.809 81.7199C22.7858 81.8844 22.6589 82 22.5 82Z" fill="#FF9044"/>
</svg>
