<svg width="130" height="122" viewBox="0 0 130 122" fill="none" xmlns="http://www.w3.org/2000/svg">
<path d="M89 58C88.7401 58 88.5331 57.8123 88.4801 57.5331C87.9845 54.3281 87.5853 53.948 84.4813 53.5197C84.202 53.4812 84 53.2694 84 53C84 52.7305 84.207 52.5091 84.4862 52.4754C87.5948 52.129 88.0375 51.6766 88.4801 48.4668C88.5237 48.1925 88.7351 48 89 48C89.2599 48 89.4714 48.1925 89.5149 48.4668C90.0012 51.6766 90.4196 52.0904 93.5187 52.4754C93.793 52.5139 94 52.7305 94 53C94 53.2694 93.793 53.486 93.5138 53.5197C90.4052 53.871 89.9576 54.3233 89.5149 57.5331C89.4763 57.8074 89.2649 58 89 58Z" fill="#FECC13"/>
<path d="M113.5 37C113.24 37 113.033 36.8123 112.98 36.5331C112.484 33.3281 112.085 32.948 108.981 32.5197C108.702 32.4812 108.5 32.2694 108.5 32C108.5 31.7305 108.707 31.5091 108.986 31.4754C112.095 31.129 112.537 30.6766 112.98 27.4668C113.024 27.1925 113.235 27 113.5 27C113.76 27 113.971 27.1925 114.015 27.4668C114.501 30.6766 114.92 31.0904 118.019 31.4754C118.293 31.5139 118.5 31.7305 118.5 32C118.5 32.2694 118.293 32.486 118.014 32.5197C114.905 32.871 114.458 33.3233 114.015 36.5331C113.976 36.8074 113.765 37 113.5 37Z" fill="#FECC13"/>
<path d="M72.5 23C72.2401 23 72.0331 22.8123 71.9801 22.5331C71.4845 19.3281 71.0853 18.948 67.9813 18.5197C67.702 18.4812 67.5 18.2694 67.5 18C67.5 17.7305 67.707 17.5091 67.9862 17.4754C71.0948 17.129 71.5375 16.6766 71.9801 13.4668C72.0237 13.1925 72.2351 13 72.5 13C72.7599 13 72.9714 13.1925 73.0149 13.4668C73.5012 16.6766 73.9196 17.0904 77.0187 17.4754C77.293 17.5139 77.5 17.7305 77.5 18C77.5 18.2694 77.293 18.486 77.0138 18.5197C73.9052 18.871 73.4576 19.3233 73.0149 22.5331C72.9763 22.8074 72.7649 23 72.5 23Z" fill="#FECC13"/>
<path d="M27.5 26C27.2401 26 27.0331 25.8123 26.9801 25.5331C26.4845 22.3281 26.0853 21.948 22.9813 21.5197C22.702 21.4812 22.5 21.2694 22.5 21C22.5 20.7305 22.707 20.5091 22.9862 20.4754C26.0948 20.129 26.5375 19.6766 26.9801 16.4668C27.0237 16.1925 27.2351 16 27.5 16C27.7599 16 27.9714 16.1925 28.0149 16.4668C28.5012 19.6766 28.9196 20.0904 32.0187 20.4754C32.293 20.5139 32.5 20.7305 32.5 21C32.5 21.2694 32.293 21.486 32.0138 21.5197C28.9052 21.871 28.4576 22.3233 28.0149 25.5331C27.9763 25.8074 27.7649 26 27.5 26Z" fill="#FECC13"/>
<path d="M5 10C4.74006 10 4.5331 9.81233 4.48012 9.53309C3.98448 6.32814 3.58533 5.948 0.481275 5.5197C0.202037 5.48118 0 5.26945 0 4.99998C0 4.73047 0.206965 4.50913 0.486202 4.47542C3.59478 4.12895 4.03745 3.67658 4.48012 0.466785C4.52365 0.192471 4.73513 0 5 0C5.25994 0 5.47142 0.192471 5.51495 0.466785C6.00115 3.67658 6.4196 4.09043 9.51873 4.47542C9.79304 4.51394 10 4.73047 10 4.99998C10 5.26945 9.79304 5.48602 9.5138 5.5197C6.40522 5.87101 5.95762 6.32334 5.51495 9.53309C5.47635 9.80741 5.26487 10 5 10Z" fill="#FEBF05"/>
<path d="M94.5 17C94.2401 17 94.0331 16.8123 93.9801 16.5331C93.4845 13.3281 93.0853 12.948 89.9813 12.5197C89.702 12.4812 89.5 12.2694 89.5 12C89.5 11.7305 89.707 11.5091 89.9862 11.4754C93.0948 11.129 93.5375 10.6766 93.9801 7.46678C94.0237 7.19247 94.2351 7 94.5 7C94.7599 7 94.9714 7.19247 95.0149 7.46678C95.5012 10.6766 95.9196 11.0904 99.0187 11.4754C99.293 11.5139 99.5 11.7305 99.5 12C99.5 12.2694 99.293 12.486 99.0138 12.5197C95.9052 12.871 95.4576 13.3233 95.0149 16.5331C94.9763 16.8074 94.7649 17 94.5 17Z" fill="#FECC13"/>
<path d="M108.5 56C108.24 56 108.033 55.8123 107.98 55.5331C107.484 52.3281 107.085 51.948 103.981 51.5197C103.702 51.4812 103.5 51.2694 103.5 51C103.5 50.7305 103.707 50.5091 103.986 50.4754C107.095 50.129 107.537 49.6766 107.98 46.4668C108.024 46.1925 108.235 46 108.5 46C108.76 46 108.971 46.1925 109.015 46.4668C109.501 49.6766 109.92 50.0904 113.019 50.4754C113.293 50.5139 113.5 50.7305 113.5 51C113.5 51.2694 113.293 51.486 113.014 51.5197C109.905 51.871 109.458 52.3233 109.015 55.5331C108.976 55.8074 108.765 56 108.5 56Z" fill="#FECC13"/>
<path d="M94 41C93.844 41 93.7199 40.8874 93.6881 40.7199C93.3907 38.7969 93.1512 38.5688 91.2888 38.3118C91.1212 38.2887 91 38.1617 91 38C91 37.8383 91.1242 37.7055 91.2917 37.6853C93.1569 37.4774 93.4225 37.2059 93.6881 35.2801C93.7142 35.1155 93.8411 35 94 35C94.156 35 94.2829 35.1155 94.309 35.2801C94.6007 37.2059 94.8518 37.4543 96.7112 37.6853C96.8758 37.7084 97 37.8383 97 38C97 38.1617 96.8758 38.2916 96.7083 38.3118C94.8431 38.5226 94.5746 38.794 94.309 40.7199C94.2858 40.8844 94.1589 41 94 41Z" fill="#FEBF05"/>
<path d="M91 122C90.844 122 90.7199 121.887 90.6881 121.72C90.3907 119.797 90.1512 119.569 88.2888 119.312C88.1212 119.289 88 119.162 88 119C88 118.838 88.1242 118.705 88.2917 118.685C90.1569 118.477 90.4225 118.206 90.6881 116.28C90.7142 116.115 90.8411 116 91 116C91.156 116 91.2829 116.115 91.309 116.28C91.6007 118.206 91.8518 118.454 93.7112 118.685C93.8758 118.708 94 118.838 94 119C94 119.162 93.8758 119.292 93.7083 119.312C91.8431 119.523 91.5746 119.794 91.309 121.72C91.2858 121.884 91.1589 122 91 122Z" fill="#FECC13"/>
<path d="M68.5 75C68.344 75 68.2199 74.8874 68.1881 74.7199C67.8907 72.7969 67.6512 72.5688 65.7888 72.3118C65.6212 72.2887 65.5 72.1617 65.5 72C65.5 71.8383 65.6242 71.7055 65.7917 71.6853C67.6569 71.4774 67.9225 71.2059 68.1881 69.2801C68.2142 69.1155 68.3411 69 68.5 69C68.656 69 68.7829 69.1155 68.809 69.2801C69.1007 71.2059 69.3518 71.4543 71.2112 71.6853C71.3758 71.7084 71.5 71.8383 71.5 72C71.5 72.1617 71.3758 72.2916 71.2083 72.3118C69.3431 72.5226 69.0746 72.794 68.809 74.7199C68.7858 74.8844 68.6589 75 68.5 75Z" fill="#FEBF05"/>
<path d="M47 49C46.844 49 46.7199 48.8874 46.6881 48.7199C46.3907 46.7969 46.1512 46.5688 44.2888 46.3118C44.1212 46.2887 44 46.1617 44 46C44 45.8383 44.1242 45.7055 44.2917 45.6853C46.1569 45.4774 46.4225 45.2059 46.6881 43.2801C46.7142 43.1155 46.8411 43 47 43C47.156 43 47.2829 43.1155 47.309 43.2801C47.6007 45.2059 47.8518 45.4543 49.7112 45.6853C49.8758 45.7084 50 45.8383 50 46C50 46.1617 49.8758 46.2916 49.7083 46.3118C47.8431 46.5226 47.5746 46.794 47.309 48.7199C47.2858 48.8844 47.1589 49 47 49Z" fill="#FF9044"/>
<path d="M59 26C58.844 26 58.7199 25.8874 58.6881 25.7199C58.3907 23.7969 58.1512 23.5688 56.2888 23.3118C56.1212 23.2887 56 23.1617 56 23C56 22.8383 56.1242 22.7055 56.2917 22.6853C58.1569 22.4774 58.4225 22.2059 58.6881 20.2801C58.7142 20.1155 58.8411 20 59 20C59.156 20 59.2829 20.1155 59.309 20.2801C59.6007 22.2059 59.8518 22.4543 61.7112 22.6853C61.8758 22.7084 62 22.8383 62 23C62 23.1617 61.8758 23.2916 61.7083 23.3118C59.8431 23.5226 59.5746 23.794 59.309 25.7199C59.2858 25.8844 59.1589 26 59 26Z" fill="#FF9044"/>
<path d="M41 7C40.844 7 40.7199 6.8874 40.6881 6.71986C40.3907 4.79689 40.1512 4.5688 38.2888 4.31182C38.1212 4.28871 38 4.16167 38 3.99999C38 3.83828 38.1242 3.70548 38.2917 3.68525C40.1569 3.47737 40.4225 3.20595 40.6881 1.28007C40.7142 1.11548 40.8411 1 41 1C41.156 1 41.2829 1.11548 41.309 1.28007C41.6007 3.20595 41.8518 3.45426 43.7112 3.68525C43.8758 3.70836 44 3.83828 44 3.99999C44 4.16167 43.8758 4.29161 43.7083 4.31182C41.8431 4.5226 41.5746 4.794 41.309 6.71986C41.2858 6.88444 41.1589 7 41 7Z" fill="#FECC13"/>
<path d="M104 81C103.844 81 103.72 80.8874 103.688 80.7199C103.391 78.7969 103.151 78.5688 101.289 78.3118C101.121 78.2887 101 78.1617 101 78C101 77.8383 101.124 77.7055 101.292 77.6853C103.157 77.4774 103.422 77.2059 103.688 75.2801C103.714 75.1155 103.841 75 104 75C104.156 75 104.283 75.1155 104.309 75.2801C104.601 77.2059 104.852 77.4543 106.711 77.6853C106.876 77.7084 107 77.8383 107 78C107 78.1617 106.876 78.2916 106.708 78.3118C104.843 78.5226 104.575 78.794 104.309 80.7199C104.286 80.8844 104.159 81 104 81Z" fill="#FEBF05"/>
<path d="M62 53C61.7401 53 61.5331 52.8123 61.4801 52.5331C60.9845 49.3281 60.5853 48.948 57.4813 48.5197C57.202 48.4812 57 48.2694 57 48C57 47.7305 57.207 47.5091 57.4862 47.4754C60.5948 47.129 61.0375 46.6766 61.4801 43.4668C61.5237 43.1925 61.7351 43 62 43C62.2599 43 62.4714 43.1925 62.5149 43.4668C63.0012 46.6766 63.4196 47.0904 66.5187 47.4754C66.793 47.5139 67 47.7305 67 48C67 48.2694 66.793 48.486 66.5138 48.5197C63.4052 48.871 62.9576 49.3233 62.5149 52.5331C62.4763 52.8074 62.2649 53 62 53Z" fill="#FECC13"/>
<path d="M63.5 101C63.2401 101 63.0331 100.812 62.9801 100.533C62.4845 97.3281 62.0853 96.948 58.9813 96.5197C58.702 96.4812 58.5 96.2694 58.5 96C58.5 95.7305 58.707 95.5091 58.9862 95.4754C62.0948 95.129 62.5375 94.6766 62.9801 91.4668C63.0237 91.1925 63.2351 91 63.5 91C63.7599 91 63.9714 91.1925 64.0149 91.4668C64.5012 94.6766 64.9196 95.0904 68.0187 95.4754C68.293 95.5139 68.5 95.7305 68.5 96C68.5 96.2694 68.293 96.486 68.0138 96.5197C64.9052 96.871 64.4576 97.3233 64.0149 100.533C63.9763 100.807 63.7649 101 63.5 101Z" fill="#FECC13"/>
<path d="M73.5 93C73.292 93 73.1265 92.8499 73.0841 92.6265C72.6876 90.0625 72.3683 89.7584 69.885 89.4158C69.6616 89.3849 69.5 89.2156 69.5 89C69.5 88.7844 69.6656 88.6073 69.889 88.5803C72.3758 88.3032 72.73 87.9413 73.0841 85.3734C73.1189 85.154 73.2881 85 73.5 85C73.708 85 73.8771 85.154 73.912 85.3734C74.3009 87.9413 74.6357 88.2723 77.115 88.5803C77.3344 88.6111 77.5 88.7844 77.5 89C77.5 89.2156 77.3344 89.3888 77.111 89.4158C74.6242 89.6968 74.2661 90.0587 73.912 92.6265C73.8811 92.8459 73.7119 93 73.5 93Z" fill="#FF9044"/>
<path d="M125.5 111C125.292 111 125.126 110.85 125.084 110.626C124.688 108.063 124.368 107.758 121.885 107.416C121.662 107.385 121.5 107.216 121.5 107C121.5 106.784 121.666 106.607 121.889 106.58C124.376 106.303 124.73 105.941 125.084 103.373C125.119 103.154 125.288 103 125.5 103C125.708 103 125.877 103.154 125.912 103.373C126.301 105.941 126.636 106.272 129.115 106.58C129.334 106.611 129.5 106.784 129.5 107C129.5 107.216 129.334 107.389 129.111 107.416C126.624 107.697 126.266 108.059 125.912 110.626C125.881 110.846 125.712 111 125.5 111Z" fill="#FF9044"/>
</svg>
