<svg width="14" height="14" viewBox="0 0 14 14" fill="none" xmlns="http://www.w3.org/2000/svg">
<path fill-rule="evenodd" clip-rule="evenodd" d="M11.1559 0.583984C11.4648 0.583984 11.7737 0.629776 12.0972 0.779818C12.485 0.961036 12.6896 1.24553 12.8338 1.45598C13.0224 1.7649 13.1219 2.11997 13.1212 2.48191C13.1226 2.83833 13.0327 3.18916 12.8601 3.50102L7.33535 12.9897C7.21385 13.1994 6.98953 13.3281 6.74716 13.3273C6.50479 13.3265 6.28133 13.1963 6.16122 12.9858L0.738771 3.51661L0.733899 3.50882C0.610152 3.30422 0.418198 2.98854 0.384095 2.58031C0.321331 1.8116 0.742311 1.08466 1.44033 0.756435C1.8067 0.585933 2.17794 0.583984 2.41179 0.583984H11.1559ZM6.07158 1.94021H2.41179C2.17111 1.94021 2.07855 1.95482 2.01424 1.98502C1.8282 2.07117 1.71658 2.26513 1.73556 2.46925C1.74044 2.52771 1.76382 2.59298 1.90218 2.82097L1.91095 2.83558L6.07158 10.1009V1.94021ZM7.42792 10.1369L11.686 2.82389C11.7397 2.71795 11.7671 2.60066 11.7659 2.48191C11.7659 2.37766 11.7444 2.28705 11.6957 2.19352C11.6638 2.14461 11.6279 2.09834 11.5885 2.05517C11.5705 2.03543 11.5486 2.01952 11.5242 2.0084C11.4085 1.95727 11.2823 1.93391 11.1559 1.9402H7.42792V10.1369Z" fill="white"/>
</svg>
