<svg width="17" height="14" viewBox="0 0 17 14" fill="none" xmlns="http://www.w3.org/2000/svg">
    <path fill-rule="evenodd" clip-rule="evenodd" d="M8.76409 6.86115C10.6827 6.86115 12.2862 6.53964 12.6781 6.11004C12.3453 5.74567 11.1418 5.45872 9.61338 5.38021V6.28779C9.33977 6.30189 9.05528 6.3088 8.76382 6.3088C8.47235 6.3088 8.18786 6.30189 7.91369 6.28779V5.38021C6.38581 5.45872 5.18175 5.74567 4.849 6.11004C5.24143 6.53964 6.84518 6.86115 8.76382 6.86115H8.76409ZM12.173 2.58916V3.83899H9.61338V4.70567C11.4113 4.79828 12.7603 5.17923 12.7704 5.63509V6.58553C12.7603 7.0414 11.4113 7.42152 9.61338 7.51441V9.64142H7.91397V7.51441C6.1161 7.42179 4.76756 7.0414 4.75752 6.58553V5.63509C4.76756 5.17923 6.1161 4.79828 7.91397 4.70567V3.83899H5.35439V2.58916H12.1732H12.173ZM4.3478 0.600098H13.3332C13.548 0.600098 13.7457 0.71206 13.8528 0.893965L16.4704 5.34924C16.606 5.58036 16.5658 5.87201 16.3723 6.05917L9.16684 13.0307C8.93311 13.2566 8.5577 13.2566 8.32453 13.0307L1.12804 6.06857C0.930287 5.87671 0.892913 5.57676 1.03878 5.34454L3.83711 0.880142C3.94616 0.706531 4.13973 0.600374 4.34808 0.600374L4.3478 0.600098Z" fill="white"/>
</svg>